HIERARCHY
ROOT Hips
{
	OFFSET -3.958830 18.904000 13.208200
	CHANNELS 6 Xposition Yposition Zposition Zrotation Yrotation Xrotation 
	JOINT LHipJoint
	{
		OFFSET 0.000000 0.000000 0.000000
		CHANNELS 3 Zrotation Yrotation Xrotation
		JOINT LeftUpLeg
		{
			OFFSET 1.800000 -1.400000 0.085000
			CHANNELS 3 Zrotation Yrotation Xrotation
			JOINT LeftLeg
			{
				OFFSET 2.215000 -6.000000 0.000000
				CHANNELS 3 Zrotation Yrotation Xrotation
				JOINT LeftFoot
				{
					OFFSET 2.500000 -6.900000 0.000000
					CHANNELS 3 Zrotation Yrotation Xrotation
					JOINT LeftToeBase
					{
						OFFSET 0.200000 -0.500000 1.950000
						CHANNELS 3 Zrotation Yrotation Xrotation
						End Site
						{
							OFFSET 0.000000 0.000000 0.000000
						}
					}
				}
			}
		}
	}
	JOINT RHipJoint
	{
		OFFSET 0.000000 0.000000 0.000000
		CHANNELS 3 Zrotation Yrotation Xrotation
		JOINT RightUpLeg
		{
			OFFSET -1.800000 -1.400000 0.085000
			CHANNELS 3 Zrotation Yrotation Xrotation
			JOINT RightLeg
			{
				OFFSET -2.215000 -6.000000 0.000000
				CHANNELS 3 Zrotation Yrotation Xrotation
				JOINT RightFoot
				{
					OFFSET -2.500000 -6.900000 0.000000
					CHANNELS 3 Zrotation Yrotation Xrotation
					JOINT RightToeBase
					{
						OFFSET -0.200000 -0.500000 1.950000
						CHANNELS 3 Zrotation Yrotation Xrotation
						End Site
						{
							OFFSET 0.000000 0.000000 0.000000
						}
					}
				}
			}
		}
	}
	JOINT LowerBack
	{
		OFFSET 0.000000 0.000000 0.000000
		CHANNELS 3 Zrotation Yrotation Xrotation
		JOINT Spine
		{
			OFFSET -0.087000 1.940000 -0.288900
			CHANNELS 3 Zrotation Yrotation Xrotation
			JOINT Spine1
			{
				OFFSET 0.000000 1.950000 0.060000
				CHANNELS 3 Zrotation Yrotation Xrotation
				JOINT Neck
				{
					OFFSET 0.000000 0.000000 0.000000
					CHANNELS 3 Zrotation Yrotation Xrotation
					JOINT Neck1
					{
						OFFSET 0.000000 1.600000 0.340000
						CHANNELS 3 Zrotation Yrotation Xrotation
						JOINT Head
						{
							OFFSET 0.000000 1.667000 -0.240000
							CHANNELS 3 Zrotation Yrotation Xrotation
							End Site
							{
								OFFSET 0.000000 0.000000 0.000000
							}
						}
					}
				}
				JOINT LeftShoulder
				{
					OFFSET 0.000000 0.000000 0.000000
					CHANNELS 3 Zrotation Yrotation Xrotation
					JOINT LeftArm
					{
						OFFSET 2.700000 1.550000 -0.730000
						CHANNELS 3 Zrotation Yrotation Xrotation
						JOINT LeftForeArm
						{
							OFFSET 5.450000 0.000000 0.000000
							CHANNELS 3 Zrotation Yrotation Xrotation
							JOINT LeftHand
							{
								OFFSET 3.450000 0.000000 0.000000
								CHANNELS 3 Zrotation Yrotation Xrotation
								JOINT LeftHandIndex1
								{
									OFFSET 0.750000 0.000000 0.000000
									CHANNELS 3 Zrotation Yrotation Xrotation
									End Site
									{
										OFFSET 0.000000 0.000000 0.000000
									}
								}
							}
						}
					}
				}
				JOINT RightShoulder
				{
					OFFSET 0.000000 0.000000 0.000000
					CHANNELS 3 Zrotation Yrotation Xrotation
					JOINT RightArm
					{
						OFFSET -2.700000 1.550000 -0.730000
						CHANNELS 3 Zrotation Yrotation Xrotation
						JOINT RightForeArm
						{
							OFFSET -5.450000 0.000000 0.000000
							CHANNELS 3 Zrotation Yrotation Xrotation
							JOINT RightHand
							{
								OFFSET -3.450000 0.000000 0.000000
								CHANNELS 3 Zrotation Yrotation Xrotation
								JOINT RightHandIndex1
								{
									OFFSET -0.750000 0.000000 0.000000
									CHANNELS 3 Zrotation Yrotation Xrotation
									End Site
									{
										OFFSET 0.000000 0.000000 0.000000
									}
								}
							}
						}
					}
				}
			}
		}
	}
}
MOTION
Frames: 13
Frame Time: 0.016667
-1.679640 13.893650 -7.701190 -1.539665 4.457343 2.678847 -16.129774 5.915737 8.353827 38.501925 -5.413953 -79.512143 -21.026538 53.963577 93.575967 3.816863 21.303212 -1.702474 0.550150 0.522490 0.526660 18.895561 -2.991459 6.462497 -37.032856 8.819759 -77.160894 10.857262 -46.972844 104.080706 -4.430358 -19.817182 -1.342131 0.229940 -0.406970 0.107100 -2.997089 -3.132188 -12.487536 3.852472 -3.595555 64.954659 -3.107316 0.063818 -2.826347 2.668574 -6.275003 -12.250262 -14.312498 1.801490 34.720303 0.156300 -1.620510 -32.649720 -18.370948 -14.721275 5.063239 -30.577013 9.768501 -11.487446 -93.770842 -59.869444 51.127107 -3.227150 3.321170 0.689100 -0.425360 0.519530 -0.034090 13.400679 21.885589 8.837084 36.655972 -1.888346 -14.063715 97.004247 67.819001 55.379325 2.914248 -0.853324 0.047290 0.207610 -0.125600 -0.181070 
-1.688990 13.541340 -7.766690 -1.490302 5.255892 3.787614 -16.172570 5.306320 8.630822 43.198622 -2.465290 -84.111741 -25.663669 60.065278 93.154459 3.938815 21.476564 -1.670230 0.530420 0.501170 0.514500 18.963512 -2.358497 6.858568 -42.875279 5.690522 -82.116883 13.851372 -53.828892 105.871735 -4.725834 -20.818535 -1.475927 0.243370 -0.364420 0.116860 -2.967989 -3.124110 -12.790398 3.663227 -3.574291 68.103469 -3.044959 -0.085276 -1.551396 2.601618 -5.923579 -11.370992 -13.080809 1.173628 33.332839 -0.312440 -1.565620 -32.900040 -18.244346 -13.284139 4.578589 -30.995873 9.560388 -10.831633 -103.078640 -62.609079 62.106726 -3.336547 3.234810 0.678880 -0.385120 0.491180 -0.041590 13.181108 20.085880 8.002484 36.380289 -2.541527 -15.165049 112.928369 66.792425 71.177096 2.798853 -0.614807 0.017660 0.228490 -0.097850 -0.187020 
-1.685860 13.177640 -7.799870 -1.386909 6.198463 4.790398 -16.184440 4.836195 8.812430 47.666900 0.662973 -88.518384 -29.778519 66.146571 93.480980 4.063183 21.448865 -1.582474 0.517340 0.494780 0.496930 19.029979 -1.911665 7.155236 -48.548419 1.785751 -86.146166 15.806805 -60.222472 108.288474 -4.979849 -21.633938 -1.559617 0.260120 -0.318060 0.125680 -2.970616 -3.047325 -13.006184 3.830797 -3.869777 70.496532 -3.394604 -0.184263 -0.029089 2.575690 -5.255763 -10.321020 -11.302767 0.518198 32.096599 -0.615010 -1.214930 -32.020210 -19.002766 -11.217977 3.733016 -31.127647 8.972126 -9.922971 -114.291980 -63.424860 74.888546 -3.404652 3.176828 0.635900 -0.332960 0.451510 -0.037590 13.727899 17.239972 7.223390 36.252087 -3.544398 -14.878276 127.861156 64.250172 87.834027 2.448114 -0.886288 0.003870 0.231580 -0.085560 -0.182950 
-1.683390 12.843870 -7.820070 -1.221957 6.871997 4.687126 -16.166211 4.563292 8.891185 51.314274 3.451618 -91.222683 -34.306827 71.132690 92.597609 4.106495 20.967646 -1.405372 0.497560 0.481480 0.457160 19.085998 -1.689774 7.318777 -53.639647 -1.828073 -88.409921 18.214327 -65.774782 109.654299 -5.147061 -22.084341 -1.572470 0.263520 -0.263750 0.128530 -3.025790 -2.919448 -13.107279 3.923413 -4.487857 73.689526 -4.199931 -0.606296 1.781032 2.603483 -5.329851 -9.489865 -11.085330 0.851248 31.322713 -0.574000 -0.878320 -30.497900 -20.187748 -8.812970 2.920123 -31.037688 9.143981 -9.271692 -129.370927 -63.154567 93.257048 -3.384367 3.181469 0.579050 -0.285900 0.404560 -0.018020 14.701967 14.368227 6.724367 35.924179 -4.273712 -13.103084 141.531453 60.926625 103.616594 2.224317 -1.253022 -0.000280 0.230980 -0.079180 -0.162190 
-1.683310 12.562460 -7.844240 -0.893616 8.210424 4.975585 -16.144416 4.447812 8.906614 54.160539 6.218122 -94.280867 -42.592421 75.115804 87.248290 3.934384 19.507872 -1.050514 0.492240 0.484090 0.432120 19.128809 -1.589734 7.383640 -58.136983 -5.492765 -89.780389 20.640932 -70.355363 110.315056 -5.241316 -22.223325 -1.541193 0.271160 -0.224780 0.126100 -3.033697 -2.859729 -13.136745 4.501329 -5.329149 76.304436 -4.505076 -0.978042 3.811303 2.558353 -5.292155 -8.649043 -10.744173 0.714044 30.836819 -0.466960 -0.830000 -28.929810 -21.463497 -6.318875 2.093894 -31.054870 8.493302 -8.048876 -142.027016 -61.526164 109.686028 -3.358485 3.278938 0.515880 -0.249220 0.365190 0.007840 15.964040 11.306304 6.239660 36.115914 -4.774957 -10.977410 153.261975 57.553912 118.909199 2.113552 -1.540665 0.006030 0.225220 -0.091360 -0.140310 
-1.668570 12.300460 -7.857140 -1.514956 8.557882 4.717691 -16.141444 4.444832 8.886076 56.504633 8.522028 -97.425391 -46.608649 78.221667 86.156530 3.872682 18.862920 -0.867136 0.451780 0.436910 0.399410 19.129550 -1.581959 7.378982 -61.478481 -8.305572 -91.028882 24.803209 -74.524397 108.933977 -5.211785 -21.931285 -1.458193 0.263150 -0.170960 0.128750 -3.016729 -2.854969 -13.103748 5.227206 -5.750667 78.840855 -4.636068 -0.630749 5.669464 2.756793 -4.936039 -7.718025 -9.718839 0.463096 30.158839 -1.349800 -0.294160 -26.787450 -23.283098 -3.082918 1.156179 -31.461004 7.922454 -6.063859 -151.672145 -58.457272 122.497483 -3.411358 3.401068 0.460700 -0.188770 0.307470 0.011520 17.262455 7.492822 5.716689 35.238560 -6.344304 -8.463401 161.528313 52.651990 129.510593 2.075307 -1.787410 -0.014010 0.217360 -0.074320 -0.138090 
-1.643770 12.063580 -7.848870 -2.230157 8.016571 4.470038 -16.170187 4.508991 8.872414 58.195115 11.185473 -99.367744 -51.797968 80.687745 83.334991 3.663328 17.815543 -0.645636 0.446250 0.419350 0.400810 19.096492 -1.593730 7.329014 -64.225154 -10.184589 -92.198081 27.936430 -77.716878 108.184260 -5.183478 -21.684783 -1.406274 0.276690 -0.155980 0.138760 -2.963199 -2.917520 -13.059466 5.400163 -5.121003 80.135706 -4.033336 0.079485 7.576359 2.798315 -4.712004 -6.364536 -9.287243 0.411981 30.862780 -2.540520 0.222400 -25.197000 -24.634159 1.359543 0.031175 -33.281092 6.948117 -3.660324 -155.880646 -55.849524 128.637000 -3.471316 3.518180 0.433070 -0.148070 0.271700 0.003120 18.331643 2.816902 4.489053 33.721617 -6.856408 -6.262733 165.148576 49.682167 135.745716 2.054639 -1.954389 -0.027550 0.195290 -0.065020 -0.154500 
-1.632680 11.899960 -7.818490 -2.614209 7.842681 4.435817 -16.184390 4.582123 8.858294 59.260458 12.874583 -100.593801 -54.560525 82.220949 82.230281 3.558990 17.234633 -0.520491 0.464510 0.444930 0.399800 19.073829 -1.628873 7.271416 -66.506567 -11.613734 -92.170045 33.494913 -80.448306 104.495864 -5.016319 -20.719003 -1.236329 0.299470 -0.158630 0.138620 -2.925724 -2.987026 -13.021395 5.417729 -4.642286 81.135358 -3.285675 0.333428 8.776563 2.561341 -5.166025 -5.037717 -10.295732 0.828173 32.318556 -2.883130 0.042920 -24.718260 -25.422527 5.141642 -0.852977 -34.930038 6.574585 -2.128032 -156.248362 -54.811668 129.637492 -3.482842 3.594989 0.417290 -0.142530 0.264910 0.009920 19.392454 -0.611635 3.156411 32.691300 -5.386408 -4.577239 166.207168 48.411647 138.635657 2.053897 -2.049329 -0.021090 0.190640 -0.071030 -0.150600 
-1.631040 11.779930 -7.780470 -3.019851 7.257385 4.727478 -16.194630 4.585152 8.861688 60.456714 15.094939 -100.510414 -58.255078 83.478783 79.666299 3.373626 16.331315 -0.333511 0.484210 0.474130 0.416030 19.067189 -1.668356 7.223639 -67.833005 -12.879579 -92.451589 40.965037 -82.352053 98.265763 -4.738501 -19.228783 -0.973177 0.312680 -0.182550 0.140190 -2.939417 -2.914618 -13.006978 5.301636 -3.914869 81.325953 -3.257173 0.808511 9.643985 2.531251 -4.984310 -3.987183 -10.057251 1.174694 33.658859 -3.273690 0.511610 -25.414170 -25.725320 8.308773 -1.586409 -35.950188 6.343330 -0.988920 -156.059931 -54.269963 129.971624 -3.471821 3.649991 0.426030 -0.154520 0.284020 0.008940 19.567806 -3.853316 2.331169 34.495318 -5.221139 -3.919869 166.301749 48.919707 140.534259 2.045658 -2.082565 -0.011700 0.185290 -0.081780 -0.155850 
-1.649550 11.746580 -7.763840 -2.639431 8.172540 5.607931 -16.195051 4.575563 8.866257 60.811138 15.919855 -100.788985 -62.866109 83.821132 75.069461 3.178530 15.377759 -0.117274 0.517180 0.516590 0.420620 19.084143 -1.647370 7.192595 -68.367548 -14.807238 -92.116823 49.283657 -82.901042 90.317006 -4.375905 -17.450662 -0.637527 0.330970 -0.192240 0.137580 -2.908520 -2.954128 -13.011326 4.621635 -3.916907 81.398963 -2.866709 0.364182 9.707642 2.061134 -5.582030 -3.105964 -11.253104 2.028254 33.956562 -2.683610 0.541370 -25.957760 -26.014741 10.564436 -2.180515 -36.853671 5.794107 -0.372847 -156.656833 -54.304208 131.725505 -3.444487 3.689007 0.422030 -0.172610 0.296230 0.031770 20.722083 -5.907081 1.737741 35.381892 -5.081605 -3.240816 166.688523 48.382512 141.824104 2.051109 -2.142636 0.005800 0.187110 -0.105550 -0.141510 
-1.629330 11.775030 -7.748260 -3.364211 8.083373 6.478392 -16.205907 4.544573 8.881459 60.866612 16.834976 -100.688250 -66.820496 83.631507 70.913465 3.004323 14.529717 0.074353 0.555090 0.573270 0.427450 19.089946 -1.611698 7.190500 -68.271676 -15.352121 -91.377694 53.196789 -82.644840 85.800230 -4.194404 -16.576420 -0.464161 0.352650 -0.211370 0.134570 -2.906588 -2.967558 -13.034246 5.004501 -3.938010 80.774909 -2.502551 0.760925 9.581037 1.866108 -5.959340 -2.420527 -12.179300 2.493247 34.834220 -2.264420 0.518600 -26.295910 -26.307846 12.229648 -2.837088 -38.819551 4.260949 0.233312 -154.803726 -55.336552 129.938384 -3.397614 3.711291 0.414090 -0.191330 0.315540 0.054300 21.140017 -7.305470 1.292950 35.046071 -4.925237 -2.975388 165.746024 48.612347 140.505030 2.060251 -2.179344 0.031680 0.183290 -0.135040 -0.125510 
-1.647180 11.903940 -7.762530 -3.892414 7.931503 8.276026 -16.217213 4.480818 8.883131 60.558723 17.343776 -100.227640 -67.211099 82.017857 68.893275 2.973074 14.365371 0.108312 0.575520 0.607020 0.419160 19.102681 -1.532124 7.248234 -66.336742 -15.447539 -92.255988 60.393426 -81.233876 77.002154 -3.869359 -15.190515 -0.179867 0.359470 -0.221540 0.127790 -2.911564 -2.987399 -13.074062 4.463751 -3.359775 79.895067 -2.054170 1.035281 9.594542 1.491607 -6.622470 -2.759110 -13.629369 3.346298 34.820581 -1.535700 0.461550 -26.464250 -25.998396 11.969846 -2.599908 -41.367281 3.941074 -0.170184 -155.362673 -56.896453 131.723020 -3.344597 3.692517 0.404610 -0.210650 0.325650 0.074970 21.352883 -6.301574 1.322970 35.321565 -4.266680 -3.485145 164.792951 50.075115 139.418572 2.063635 -2.157500 0.053150 0.178520 -0.156640 -0.105630 
-1.640130 12.065450 -7.778710 -4.087963 7.979076 10.065868 -16.230093 4.450965 8.898742 59.885287 17.278048 -100.067181 -67.296621 80.264146 67.028778 2.955457 14.320945 0.106142 0.587320 0.625930 0.423290 19.106385 -1.479694 7.277554 -64.955723 -15.442718 -92.145164 63.479770 -79.404367 72.098573 -3.707417 -14.547434 -0.048859 0.357030 -0.242750 0.124320 -2.893269 -3.034289 -13.108619 4.032365 -3.133957 78.510125 -1.885901 1.080599 9.958278 1.526537 -6.880460 -3.660711 -14.432146 3.822279 35.355696 -1.412230 0.551990 -26.702350 -25.064118 10.629338 -1.981441 -44.137275 3.665765 -0.830753 -154.905787 -58.536631 131.514378 -3.294181 3.646740 0.409550 -0.231450 0.344300 0.081390 20.398051 -4.618575 1.685407 36.216348 -3.879099 -4.474559 164.249617 51.692914 138.907044 2.062557 -2.102847 0.069150 0.170770 -0.171640 -0.098970 
